# xmcd
#
# Track frame offsets: 
#        150
#        27980
#        53822
#        76667
#        100159
#        110988
#        137061
#        154901
#        186705
#        203203
#
# Disc length: 2995 seconds
#
# Revision: 0
# Processed by: cddbd v1.5.1PL0 Copyright (c) Steve Scherf et al.
# Submitted via: ExactAudioCopy v0.90b4
#
DISCID=8c0bb10a
DTITLE=Jean-Jacques Milteau . Manu Galvin . Demi Evans - Pacific Blue
DYEAR=2005
DGENRE=Blues
TTITLE0=Ode to Bilie Joe
TTITLE1=Watermelon Man
TTITLE2=Soft Rain
TTITLE3=Soweto
TTITLE4=Bad Love Interview
TTITLE5=At Last On Time
TTITLE6=Stormy Monday
TTITLE7=Same Kind Of Pressure
TTITLE8=Love and Misery
TTITLE9=Chain Of Fools (Bonus track)
EXTD=
EXTT0=
EXTT1=
EXTT2=
EXTT3=
EXTT4=
EXTT5=
EXTT6=
EXTT7=
EXTT8=
EXTT9=
PLAYORDER=
